<svg width="23" height="25" viewBox="0 0 23 25" fill="none" xmlns="http://www.w3.org/2000/svg">
<path d="M0.457031 15.3101C0.457031 10.8883 0.457031 6.46589 0.457031 2.04411C0.466325 2.02115 0.481632 1.99883 0.484365 1.97459C0.622127 0.825936 1.46838 -0.0012741 2.5251 1.47318e-06C8.59538 0.00637935 14.6657 0.00191483 20.7354 0.00446598C21.9916 0.00510377 22.8483 1.01089 22.8483 2.47334C22.8488 6.65595 22.8483 10.8392 22.8483 15.0218C22.8483 15.1117 22.8483 15.2023 22.8483 15.2916C21.5067 15.2916 20.1931 15.2916 18.8685 15.2916C18.8685 14.5339 18.8723 13.7953 18.8674 13.0561C18.8641 12.5714 18.5962 12.2608 18.183 12.25C17.9938 12.2449 17.8041 12.2487 17.6144 12.2487C17.1918 12.2487 17.1984 12.2455 17.0306 11.7869C16.9748 11.6352 16.9972 11.5427 17.0962 11.4349C17.2979 11.2142 17.4942 10.9852 17.6828 10.7493C17.937 10.431 17.9495 10.0018 17.6904 9.69182C17.0699 8.94943 16.4413 8.21534 15.8038 7.49273C15.5458 7.19998 15.1806 7.21656 14.9138 7.49974C14.763 7.65983 14.623 7.8333 14.4787 8.00168C14.178 8.35246 14.1802 8.34609 13.7855 8.16049C13.6565 8.0999 13.6117 8.02018 13.6171 7.85945C13.6281 7.53673 13.6264 7.21338 13.6177 6.89066C13.6062 6.4525 13.3394 6.1336 12.9633 6.12978C12.0892 6.12085 11.2145 6.12085 10.3398 6.12978C9.96425 6.1336 9.69966 6.45313 9.68599 6.89193C9.67889 7.1209 9.68381 7.35114 9.68381 7.58074C9.68381 8.0814 9.68162 8.07566 9.29512 8.26764C9.17103 8.3295 9.08739 8.32376 8.99117 8.20195C8.80366 7.96469 8.60631 7.737 8.40459 7.51569C8.12524 7.20891 7.75569 7.19743 7.48126 7.50995C6.85586 8.22299 6.23757 8.94433 5.62584 9.67332C5.35032 10.0011 5.36344 10.4329 5.63568 10.7697C5.77071 10.9368 5.91284 11.0956 6.0517 11.2582C6.34089 11.5963 6.33433 11.5931 6.18126 12.0472C6.12605 12.2104 6.0517 12.2608 5.90628 12.2525C5.65208 12.2379 5.39624 12.2455 5.14149 12.2493C4.70251 12.2564 4.4401 12.5657 4.43573 13.0829C4.43245 13.4484 4.43518 13.8138 4.43518 14.1799C4.43518 14.5511 4.43518 14.9217 4.43518 15.3101C3.09255 15.3101 1.77452 15.3101 0.457031 15.3101ZM18.2092 3.06648C17.1372 3.07095 16.2483 4.10926 16.2466 5.35869C16.245 6.61577 17.1552 7.67131 18.2278 7.65472C19.3042 7.63814 20.1887 6.59408 20.1794 5.34976C20.1707 4.09651 19.278 3.06202 18.2092 3.06648Z" fill="white"/>
<path d="M0.457031 16.8408C7.91094 16.8408 15.3649 16.8408 22.8171 16.8408C23.0653 18.6266 22.1403 19.8958 20.7802 19.8977C14.681 19.9073 8.58117 19.9041 2.48191 19.8996C1.44323 19.899 0.680621 19.1388 0.488738 17.9557C0.483272 17.9231 0.467965 17.8925 0.457031 17.8613C0.457031 17.5213 0.457031 17.1808 0.457031 16.8408Z" fill="white"/>
<path d="M7.68069 21.4395C10.3353 21.4395 12.972 21.4395 15.625 21.4395C15.7518 21.8808 15.8852 22.319 16.0011 22.7635C16.0432 22.9249 16.1093 22.9689 16.2482 22.967C16.8747 22.9587 17.5017 22.9619 18.1282 22.9638C18.5715 22.9657 18.8695 23.2769 18.8678 23.731C18.8662 24.1851 18.5694 24.4932 18.1238 24.4932C13.81 24.4938 9.4962 24.4938 5.18293 24.4932C4.73739 24.4932 4.44055 24.1845 4.43946 23.7304C4.43836 23.2756 4.73575 22.9657 5.17965 22.9638C5.80614 22.9619 6.43318 22.958 7.05967 22.967C7.19907 22.9689 7.26467 22.9229 7.30622 22.7629C7.41993 22.3247 7.55113 21.8929 7.68069 21.4395Z" fill="white"/>
<path d="M17.5481 13.7793C17.5481 14.301 17.5481 14.7908 17.5481 15.2953C16.6472 15.2953 15.755 15.2953 14.8678 15.2953C15.0919 13.5892 14.618 12.2199 13.371 11.3053C12.211 10.4551 10.9875 10.4807 9.85042 11.3665C8.66687 12.2888 8.21422 13.6313 8.44054 15.2934C7.55493 15.2934 6.66385 15.2934 5.76074 15.2934C5.76074 14.7985 5.76074 14.3087 5.76074 13.7793C5.99253 13.7793 6.22924 13.7799 6.4665 13.7793C6.91368 13.7774 7.10228 13.5988 7.25316 13.1071C7.37781 12.7008 7.52322 12.3028 7.68066 11.9125C7.86216 11.4622 7.83701 11.1861 7.53908 10.8302C7.37617 10.6356 7.21162 10.443 7.04816 10.2491C7.04324 10.2434 7.04051 10.2351 7.04925 10.2517C7.35539 9.89453 7.65716 9.54247 7.98079 9.16427C8.12511 9.33711 8.28857 9.53865 8.45749 9.73445C8.77128 10.0973 9.00854 10.1267 9.4016 9.9092C9.73561 9.72424 10.0778 9.55587 10.4261 9.41045C10.8437 9.2357 10.9946 9.01375 10.9962 8.48821C10.9973 8.22481 10.9962 7.96204 10.9962 7.67822C11.4281 7.67822 11.8534 7.67822 12.3083 7.67822C12.3083 7.93206 12.3083 8.19164 12.3083 8.45186C12.3088 9.02459 12.457 9.24144 12.9107 9.42512C13.2393 9.55778 13.5618 9.71595 13.8745 9.8939C14.2921 10.1312 14.5278 10.1044 14.8563 9.72488C15.0209 9.53418 15.1832 9.34093 15.3319 9.1649C15.6463 9.53036 15.9491 9.88178 16.2755 10.2606C16.112 10.443 15.9305 10.6369 15.7578 10.841C15.468 11.1848 15.4451 11.4629 15.6195 11.9023C15.7813 12.3092 15.9289 12.7244 16.0617 13.1447C16.2017 13.5886 16.4001 13.7742 16.8069 13.7787C17.0474 13.7812 17.2868 13.7793 17.5481 13.7793Z" fill="white"/>
<path d="M13.4777 15.3098C13.4006 15.3098 13.3214 15.3098 13.2426 15.3098C12.158 15.3098 11.0734 15.3073 9.98938 15.313C9.86146 15.3136 9.79859 15.2786 9.76305 15.121C9.575 14.2823 9.74993 13.5457 10.2578 12.9411C10.7739 12.3269 11.4222 12.1075 12.14 12.3345C13.2465 12.6847 13.8505 13.9475 13.5269 15.1778C13.516 15.218 13.4985 15.255 13.4777 15.3098Z" fill="white"/>
<path d="M18.8683 5.3683C18.8645 5.78477 18.5644 6.12854 18.2074 6.12407C17.8504 6.11961 17.5558 5.76946 17.5596 5.35299C17.5634 4.93651 17.8636 4.59275 18.2205 4.59721C18.577 4.60168 18.8722 4.95182 18.8683 5.3683Z" fill="white"/>
</svg>
