<svg width="32" height="38" viewBox="0 0 32 38" fill="none" xmlns="http://www.w3.org/2000/svg">
<path d="M26.6621 36.4754C24.5945 38.4807 22.337 38.1641 20.1638 37.2142C17.8641 36.2432 15.7543 36.201 13.328 37.2142C10.2898 38.5229 8.68635 38.143 6.87189 36.4754C-3.42409 25.8578 -1.90501 9.68878 9.78346 9.09774C12.6317 9.2455 14.615 10.6598 16.2817 10.7864C18.7713 10.2798 21.1555 8.82333 23.8139 9.01331C26.9997 9.26661 29.4049 10.5331 30.9873 12.8128C24.4046 16.7601 25.9659 25.4357 32 27.8631C30.7974 31.0294 29.2361 34.1746 26.641 36.4965L26.6621 36.4754ZM16.0708 8.97109C15.7543 4.26391 19.5731 0.379952 23.9615 0C24.5734 5.44598 19.0245 9.4988 16.0708 8.97109Z" fill="black"/>
</svg>
