<svg width="58" height="64" viewBox="0 0 58 64" fill="none" xmlns="http://www.w3.org/2000/svg">
<path d="M55.9757 54.9655H53.822V50.2506C53.822 49.8388 53.6817 49.4438 53.4321 49.1526C53.1825 48.8614 52.844 48.6978 52.491 48.6978H49.7322V19.7592H55.9999C56.2677 19.7546 56.5266 19.6464 56.7361 19.4517C56.9455 19.257 57.0937 18.9867 57.1574 18.6832C57.221 18.3797 57.1965 18.0601 57.0878 17.7746C56.9791 17.4891 56.7922 17.2537 56.5565 17.1053L29.1626 0.165633C28.9876 0.0568798 28.7923 0 28.5939 0C28.3956 0 28.2003 0.0568798 28.0253 0.165633L0.655568 17.1335C0.431357 17.288 0.255815 17.5226 0.155014 17.8027C0.0542121 18.0827 0.0335283 18.3932 0.0960343 18.6881C0.15854 18.983 0.300902 19.2465 0.501974 19.4394C0.703047 19.6324 0.952105 19.7445 1.21216 19.7592H7.47984V48.6978H4.69689C4.34389 48.6978 4.00536 48.8614 3.75575 49.1526C3.50614 49.4438 3.36592 49.8388 3.36592 50.2506V54.9655H1.21216C1.04696 54.9652 0.883457 55.0043 0.731715 55.0805C0.579972 55.1566 0.443208 55.2683 0.329848 55.4084C0.216488 55.5486 0.128934 55.7144 0.0725802 55.8956C0.016227 56.0768 -0.00773183 56.2695 0.00218013 56.4618V62.5884C0.00218013 62.9628 0.12966 63.3218 0.356574 63.5865C0.583489 63.8513 0.891251 64 1.21216 64H55.9757C56.2966 64 56.6044 63.8513 56.8313 63.5865C57.0582 63.3218 57.1857 62.9628 57.1857 62.5884V56.4618C57.1956 56.2695 57.1716 56.0768 57.1153 55.8956C57.0589 55.7144 56.9714 55.5486 56.858 55.4084C56.7447 55.2683 56.6079 55.1566 56.4562 55.0805C56.3044 55.0043 56.1409 54.9652 55.9757 54.9655ZM47.2881 48.7261H45.3763V19.7592H47.2881V48.7261ZM19.023 19.7592V48.6978H14.1831V19.7592H19.023ZM21.443 19.7592H23.3547V48.6978H21.443V19.7592ZM25.7747 19.7592H31.4616V48.6978H25.7747V19.7592ZM33.8815 19.7592H35.7933V48.6978H33.8815V19.7592ZM38.2133 19.7592H43.0532V48.6978H38.2133V19.7592ZM28.5334 2.98891L51.1358 16.9359H6.07627L28.5334 2.98891ZM9.89979 19.7592H11.8116V48.6978H9.89979V19.7592ZM6.02787 51.8034H51.16V54.8243H6.02787V51.8034ZM54.7657 61.092H2.42213V57.7888H4.1645C4.34015 57.8306 4.52124 57.8306 4.69689 57.7888H52.491C52.6666 57.8306 52.8477 57.8306 53.0234 57.7888H54.7657V61.092Z" fill="white"/>
<path d="M28.6069 14.9038C29.3153 14.9038 30.0077 14.6587 30.5967 14.1996C31.1857 13.7405 31.6448 13.0879 31.9158 12.3244C32.1869 11.5608 32.2578 10.7207 32.1196 9.91016C31.9814 9.09961 31.6403 8.35509 31.1394 7.77072C30.6386 7.18635 30.0004 6.78839 29.3056 6.62716C28.6109 6.46594 27.8908 6.54869 27.2363 6.86494C26.5819 7.1812 26.0225 7.71676 25.629 8.40391C25.2354 9.09105 25.0254 9.89891 25.0254 10.7253C25.0254 11.2741 25.118 11.8174 25.298 12.3244C25.478 12.8313 25.7418 13.2919 26.0744 13.6799C26.407 14.068 26.8018 14.3757 27.2363 14.5857C27.6709 14.7957 28.1366 14.9038 28.6069 14.9038ZM28.6069 9.25723C28.8367 9.25723 29.0612 9.33671 29.2523 9.48561C29.4433 9.63452 29.5922 9.84617 29.6801 10.0938C29.768 10.3414 29.791 10.6139 29.7462 10.8768C29.7014 11.1397 29.5907 11.3811 29.4283 11.5707C29.2658 11.7602 29.0589 11.8892 28.8335 11.9415C28.6082 11.9938 28.3747 11.967 28.1624 11.8644C27.9502 11.7618 27.7687 11.5882 27.6411 11.3653C27.5135 11.1424 27.4453 10.8804 27.4453 10.6124C27.4697 10.2729 27.6027 9.95656 27.818 9.72635C28.0332 9.49615 28.3149 9.36897 28.6069 9.37016V9.25723Z" fill="white"/>
</svg>
