<svg width="24" height="24" viewBox="0 0 24 24" fill="none" xmlns="http://www.w3.org/2000/svg">
<path d="M12 24C18.6274 24 24 18.6274 24 12C24 5.37258 18.6274 0 12 0C5.37258 0 0 5.37258 0 12C0 18.6274 5.37258 24 12 24Z" fill="#FA8A34"/>
<path fill-rule="evenodd" clip-rule="evenodd" d="M17.6338 14.3856C17.196 15.5396 14.6076 16.2962 14.6076 16.2962L15.112 18.3988L13.7798 18.7175L13.2726 16.6002L12.2188 16.8405L12.7288 18.9694L11.3966 19.2881L10.8829 17.1445L8.21289 17.7532L8.10695 16.0741C8.10695 16.0741 8.59258 16.0133 9.03508 15.9259C9.47758 15.8384 9.48695 15.336 9.42789 15.0906C9.36883 14.8453 8.22321 10.0618 8.10133 9.55368C7.97946 9.04556 7.44789 8.91346 7.21633 8.95049C6.98477 8.98752 6.25164 9.25565 6.25164 9.25565L5.91602 7.8539L8.50915 7.23271L7.98883 5.05997L9.32009 4.74122L9.84039 6.91396C10.221 6.82284 10.581 6.73678 10.8923 6.66215L10.372 4.4894L11.7032 4.17065L12.2273 6.35606C12.8245 6.25921 13.9767 6.15806 14.6882 6.42018C15.5413 6.73453 16.1076 7.78452 16.1695 8.58496C16.2313 9.3854 15.3838 10.2553 15.3838 10.2553C15.3838 10.2553 16.7151 10.3479 17.2813 11.0607C18.4326 12.5087 17.8298 13.8671 17.6338 14.3856ZM10.2632 8.36934L10.9016 11.0328C10.9016 11.0328 12.052 10.8868 12.7607 10.4393C13.4695 9.99187 13.7713 9.54787 13.6663 8.9624C13.5548 8.34074 12.8235 7.97615 12.1026 8.00296C11.4756 8.04013 10.8566 8.16341 10.2632 8.36934ZM11.1501 12.3813L11.8391 15.2549C11.8391 15.2549 13.6645 14.9103 14.2579 14.5271C14.8513 14.144 15.5282 13.4077 15.1335 12.6128C14.7388 11.8179 13.6382 11.8596 12.9023 11.9616C12.3096 12.0626 11.7242 12.2028 11.1501 12.3813Z" fill="white"/>
</svg>
