<svg width="19" height="12" viewBox="0 0 19 12" fill="none" xmlns="http://www.w3.org/2000/svg">
<g clip-path="url(#clip0_1128_10886)">
<path d="M18.6996 2.54615C18.5942 2.86473 18.3548 3.0894 18.1135 3.31767C15.465 5.81913 12.8184 8.32193 10.1751 10.8283C9.85068 11.1361 9.48209 11.2799 9.03798 11.1393C8.87221 11.0867 8.70882 10.9829 8.5839 10.8652C5.83422 8.27206 3.08882 5.67534 0.345791 3.07592C-0.114943 2.63917 -0.113043 2.07435 0.338191 1.63355C0.549559 1.42686 0.760451 1.21746 0.991768 1.03189C1.38173 0.718251 1.92178 0.733978 2.3108 1.05031C2.37064 1.09884 2.42669 1.15186 2.48274 1.20488C4.71611 3.31722 6.94948 5.43 9.1819 7.54323C9.2332 7.59176 9.24412 7.62636 9.37237 7.71847C9.40752 7.65781 9.46072 7.60794 9.51011 7.56076C11.763 5.42596 14.0177 3.29295 16.2734 1.16085C16.6942 0.763185 17.2742 0.683652 17.6679 1.01122C18.0693 1.34508 18.5101 1.65871 18.6996 2.16646C18.6996 2.29273 18.6996 2.41944 18.6996 2.54615Z" fill="#029CF5"/>
</g>
<defs>
<clipPath id="clip0_1128_10886">
<rect width="18.6996" height="10.3887" fill="white" transform="translate(0 0.804688)"/>
</clipPath>
</defs>
</svg>
