<svg width="17" height="12" viewBox="0 0 17 12" fill="none" xmlns="http://www.w3.org/2000/svg">
<path fill-rule="evenodd" clip-rule="evenodd" d="M15.3337 11.7008H1.70068C0.908172 11.7008 0.265625 11.1635 0.265625 10.5008V1.50078C0.265625 0.838081 0.908172 0.300781 1.70068 0.300781H15.3337C16.1262 0.300781 16.7688 0.838081 16.7688 1.50078V10.5008C16.7688 11.1635 16.1262 11.7008 15.3337 11.7008ZM16.0513 1.50078C16.0513 1.16958 15.7298 0.900781 15.3337 0.900781H1.70068C1.30461 0.900781 0.983154 1.16958 0.983154 1.50078V3.30078H16.0513V1.50078ZM16.0513 3.90078H0.983154V10.5008C0.983154 10.832 1.30461 11.1008 1.70068 11.1008H15.3337C15.7298 11.1008 16.0513 10.832 16.0513 10.5008V3.90078ZM14.6162 8.10078H13.8987C13.7006 8.10078 13.5399 7.96668 13.5399 7.80078V7.20078C13.5399 7.03518 13.7006 6.90078 13.8987 6.90078H14.6162C14.8146 6.90078 14.975 7.03518 14.975 7.20078V7.80078C14.975 7.96668 14.8146 8.10078 14.6162 8.10078ZM14.6162 6.00078H13.8987C13.7006 6.00078 13.5399 5.86668 13.5399 5.70078V5.10078C13.5399 4.93488 13.7006 4.80078 13.8987 4.80078H14.6162C14.8146 4.80078 14.975 4.93488 14.975 5.10078V5.70078C14.975 5.86668 14.8146 6.00078 14.6162 6.00078ZM11.7461 8.10078H11.0286C10.8305 8.10078 10.6698 7.96668 10.6698 7.80078V7.20078C10.6698 7.03518 10.8305 6.90078 11.0286 6.90078H11.7461C11.9445 6.90078 12.1049 7.03518 12.1049 7.20078V7.80078C12.1049 7.96668 11.9445 8.10078 11.7461 8.10078ZM11.7461 6.00078H11.0286C10.8305 6.00078 10.6698 5.86668 10.6698 5.70078V5.10078C10.6698 4.93488 10.8305 4.80078 11.0286 4.80078H11.7461C11.9445 4.80078 12.1049 4.93488 12.1049 5.10078V5.70078C12.1049 5.86668 11.9445 6.00078 11.7461 6.00078ZM8.87597 8.10078H8.15844C7.96005 8.10078 7.79968 7.96668 7.79968 7.80078V7.20078C7.79968 7.03518 7.96005 6.90078 8.15844 6.90078H8.87597C9.07437 6.90078 9.23474 7.03518 9.23474 7.20078V7.80078C9.23474 7.96668 9.07437 8.10078 8.87597 8.10078ZM8.87597 6.00078H8.15844C7.96005 6.00078 7.79968 5.86668 7.79968 5.70078V5.10078C7.79968 4.93488 7.96005 4.80078 8.15844 4.80078H8.87597C9.07437 4.80078 9.23474 4.93488 9.23474 5.10078V5.70078C9.23474 5.86668 9.07437 6.00078 8.87597 6.00078ZM6.00586 10.2008H5.28833C5.08993 10.2008 4.92956 10.0667 4.92956 9.90078V9.30078C4.92956 9.13488 5.08993 9.00078 5.28833 9.00078H6.00586C6.20425 9.00078 6.36462 9.13488 6.36462 9.30078V9.90078C6.36462 10.0667 6.20425 10.2008 6.00586 10.2008ZM6.00586 8.10078H5.28833C5.08993 8.10078 4.92956 7.96668 4.92956 7.80078V7.20078C4.92956 7.03518 5.08993 6.90078 5.28833 6.90078H6.00586C6.20425 6.90078 6.36462 7.03518 6.36462 7.20078V7.80078C6.36462 7.96668 6.20425 8.10078 6.00586 8.10078ZM6.00586 6.00078H5.28833C5.08993 6.00078 4.92956 5.86668 4.92956 5.70078V5.10078C4.92956 4.93488 5.08993 4.80078 5.28833 4.80078H6.00586C6.20425 4.80078 6.36462 4.93488 6.36462 5.10078V5.70078C6.36462 5.86668 6.20425 6.00078 6.00586 6.00078ZM3.13574 10.2008H2.41821C2.21982 10.2008 2.05945 10.0667 2.05945 9.90078V9.30078C2.05945 9.13488 2.21982 9.00078 2.41821 9.00078H3.13574C3.33414 9.00078 3.49451 9.13488 3.49451 9.30078V9.90078C3.49451 10.0667 3.33414 10.2008 3.13574 10.2008ZM3.13574 8.10078H2.41821C2.21982 8.10078 2.05945 7.96668 2.05945 7.80078V7.20078C2.05945 7.03518 2.21982 6.90078 2.41821 6.90078H3.13574C3.33414 6.90078 3.49451 7.03518 3.49451 7.20078V7.80078C3.49451 7.96668 3.33414 8.10078 3.13574 8.10078ZM8.15844 9.00078H8.87597C9.07437 9.00078 9.23474 9.13488 9.23474 9.30078V9.90078C9.23474 10.0667 9.07437 10.2008 8.87597 10.2008H8.15844C7.96005 10.2008 7.79968 10.0667 7.79968 9.90078V9.30078C7.79968 9.13488 7.96005 9.00078 8.15844 9.00078Z" fill="#84A6C8"/>
</svg>
