<svg width="32" height="24" viewBox="0 0 32 24" fill="none" xmlns="http://www.w3.org/2000/svg">
<path d="M29.2718 3.76196H24.1048L21.0123 0.752392C21.0123 0.752392 20.997 0.737639 20.9893 0.737639L20.974 0.722887C20.5147 0.280303 19.8947 0 19.1905 0H12.7605C12.0103 0 11.3443 0.309809 10.8774 0.804027V0.811403L7.85377 3.76196H2.572C1.14821 3.76196 0 4.83891 0 6.21092V21.1186C0 22.4906 1.14821 23.6045 2.572 23.6045H29.2718C30.6879 23.6045 31.8438 22.4906 31.8438 21.1186V6.21092C31.8438 4.83891 30.6879 3.76196 29.2718 3.76196ZM15.9219 19.8794C12.0256 19.8794 8.84889 16.8108 8.84889 13.0488C8.84889 9.2795 12.0256 6.2183 15.9219 6.2183C19.8258 6.2183 22.9949 9.2795 22.9949 13.0488C22.9949 16.8108 19.8258 19.8794 15.9219 19.8794ZM28.7895 7.70833C28.2001 7.70833 27.7178 7.24362 27.7178 6.66826C27.7178 6.0929 28.2001 5.62819 28.7895 5.62819C29.3789 5.62819 29.8612 6.0929 29.8612 6.66826C29.8612 7.24362 29.3789 7.70833 28.7895 7.70833Z" fill="#D9D9D9"/>
</svg>
