<svg width="23" height="17" viewBox="0 0 23 17" fill="none" xmlns="http://www.w3.org/2000/svg">
<path d="M19.4575 2.53271C19.4575 2.53271 17.1811 0.748535 14.4878 0.543457L14.2485 1.02881C16.6821 1.62353 17.7964 2.47803 18.9653 3.52392C16.9556 2.49853 14.9663 1.53467 11.5073 1.53467C8.04834 1.53467 6.05908 2.49853 4.04932 3.52392C5.21826 2.47803 6.54443 1.52783 8.76611 1.02881L8.52685 0.543457C5.70361 0.810059 3.55713 2.53271 3.55713 2.53271C3.55713 2.53271 1.01416 6.22412 0.57666 13.4702C3.14014 16.4302 7.03662 16.4507 7.03662 16.4507L7.8501 15.3638C6.46924 14.8852 4.90381 14.0239 3.55713 12.4722C5.16357 13.689 7.59717 14.9604 11.5142 14.9604C15.4311 14.9604 17.8579 13.6958 19.4712 12.4722C18.1245 14.0239 16.5591 14.8852 15.1782 15.3638L15.9917 16.4507C15.9917 16.4507 19.8882 16.4302 22.4517 13.4702C22.0005 6.22412 19.4575 2.53271 19.4575 2.53271ZM8.26709 11.481C7.30322 11.481 6.52392 10.5923 6.52392 9.4917C6.52392 8.39111 7.30322 7.50244 8.26709 7.50244C9.23096 7.50244 10.0103 8.39111 10.0103 9.4917C10.0103 10.5923 9.23096 11.481 8.26709 11.481ZM14.7339 11.481C13.77 11.481 12.9907 10.5923 12.9907 9.4917C12.9907 8.39111 13.77 7.50244 14.7339 7.50244C15.6977 7.50244 16.477 8.39111 16.477 9.4917C16.477 10.5923 15.6909 11.481 14.7339 11.481Z" fill="white"/>
</svg>
