<svg width="32" height="32" viewBox="0 0 32 32" fill="none" xmlns="http://www.w3.org/2000/svg">
<path d="M29.4743 14.592H25.2342V10.3531C25.2342 10.0296 24.9717 9.7666 24.6488 9.7666H23.4415C23.1164 9.7666 22.8539 10.0296 22.8539 10.3531V14.592H18.6138C18.2909 14.592 18.0273 14.8556 18.0273 15.1796V16.387C18.0273 16.711 18.2909 16.9734 18.6138 16.9734H22.8539V21.2146C22.8539 21.5386 23.1164 21.8011 23.4415 21.8011H24.6488C24.9717 21.8011 25.2342 21.5386 25.2342 21.2146V16.9729H29.4743C29.7971 16.9729 30.0607 16.7104 30.0607 16.3864V15.1791C30.0607 14.8551 29.7971 14.592 29.4743 14.592Z" fill="white"/>
<path d="M15.2257 18.3094C14.3339 17.6778 13.5234 16.7515 13.5093 16.467C13.5093 15.9489 13.5555 15.7011 14.7177 14.7957C16.2203 13.6194 17.0478 12.0728 17.0478 10.4388C17.0478 8.95711 16.5951 7.64083 15.8246 6.71627H16.4224C16.546 6.71627 16.6673 6.67789 16.7661 6.60564L18.434 5.39717C18.6412 5.24872 18.7281 4.98399 18.6491 4.74185C18.5695 4.50027 18.346 4.33545 18.0914 4.33545H10.6317C9.81555 4.33545 8.98638 4.47938 8.17245 4.75935C5.45409 5.69689 3.55305 8.01336 3.55305 10.3914C3.55305 13.7605 6.16303 16.3141 9.65186 16.3942C9.58356 16.6612 9.54913 16.9242 9.54913 17.1822C9.54913 17.7015 9.68064 18.1931 9.95158 18.6684C9.91997 18.6684 9.88949 18.6684 9.85562 18.6684C6.52992 18.6684 3.52821 20.3002 2.3886 22.7284C2.0917 23.36 1.94043 23.9984 1.94043 24.6289C1.94043 25.2419 2.09791 25.8317 2.40666 26.386C3.12294 27.6673 4.66105 28.6613 6.73989 29.1862C7.8129 29.4571 8.96606 29.5954 10.1632 29.5954C11.2391 29.5954 12.2647 29.4566 13.2129 29.1823C16.1695 28.3237 18.0813 26.1472 18.0813 23.6349C18.0807 21.2242 17.3057 19.7809 15.2257 18.3094ZM5.80461 23.8279C5.80461 22.0742 8.03247 20.5361 10.5719 20.5361H10.6402C11.1928 20.5429 11.7318 20.6242 12.2398 20.7799C12.4142 20.9002 12.5824 21.0148 12.7439 21.1248C13.9202 21.9263 14.6974 22.4552 14.9136 23.3041C14.9644 23.5181 14.9898 23.732 14.9898 23.9391C14.9898 26.123 13.3614 27.2298 10.148 27.2298C7.71243 27.2298 5.80461 25.7363 5.80461 23.8279ZM8.11544 7.25757C8.51225 6.80433 9.0321 6.565 9.61573 6.565L9.68177 6.56613C11.3305 6.61467 12.9081 8.45194 13.1983 10.6617C13.3614 11.899 13.0859 13.0623 12.4639 13.7713C12.066 14.2256 11.5535 14.465 10.9461 14.465C10.9461 14.465 10.9461 14.465 10.945 14.465H10.9185C9.3036 14.4153 7.69211 12.508 7.40368 10.3011C7.24168 9.06718 7.50133 7.95805 8.11544 7.25757Z" fill="white"/>
</svg>
