<svg width="31" height="33" viewBox="0 0 31 33" fill="none" xmlns="http://www.w3.org/2000/svg">
<path d="M0 30.9749V2.0266C0.000196202 1.96379 0.019147 1.90244 0.0544761 1.85024C0.0898052 1.79804 0.13994 1.75731 0.198593 1.73316C0.257247 1.70901 0.321808 1.70251 0.384182 1.71449C0.446555 1.72646 0.503964 1.75637 0.54921 1.80046L15.7982 16.5L0.54921 31.201C0.503964 31.2451 0.446555 31.275 0.384182 31.287C0.321808 31.299 0.257247 31.2925 0.198593 31.2683C0.13994 31.2442 0.0898052 31.2034 0.0544761 31.1512C0.019147 31.099 0.000196202 31.0377 0 30.9749ZM22.192 22.5401L3.0717 32.9526L3.05978 32.9593C2.7304 33.1361 2.41742 32.6956 2.68718 32.4392L17.6753 18.273L22.192 22.5401ZM2.68867 0.560768C2.41742 0.304432 2.7304 -0.136051 3.06127 0.0407295L3.07319 0.0473633L22.192 10.4599L17.6753 14.7285L2.68867 0.560768ZM29.9107 18.3415L24.5714 21.2481L19.551 16.5L24.5714 11.7541L29.9107 14.6585C31.3631 15.4518 31.3631 17.5482 29.9107 18.3415Z" fill="black"/>
</svg>
