<svg width="25" height="24" viewBox="0 0 25 24" fill="none" xmlns="http://www.w3.org/2000/svg">
<path d="M5.58551 14.5034L4.7501 17.6221L1.69671 17.6867C0.784195 15.9942 0.266602 14.0577 0.266602 11.9999C0.266602 10.01 0.750539 8.1335 1.60835 6.4812H1.60901L4.32738 6.97958L5.5182 9.68164C5.26896 10.4082 5.13312 11.1882 5.13312 11.9999C5.13321 12.8808 5.29277 13.7247 5.58551 14.5034Z" fill="#FBBB00"/>
<path d="M24.057 9.7583C24.1948 10.4842 24.2667 11.2339 24.2667 12.0001C24.2667 12.8592 24.1764 13.6972 24.0043 14.5056C23.4201 17.2563 21.8938 19.6583 19.7793 21.3581L19.7786 21.3574L16.3547 21.1827L15.8701 18.1576C17.2731 17.3348 18.3696 16.0471 18.9472 14.5056H12.5305V9.7583H19.0408H24.057Z" fill="#518EF8"/>
<path d="M19.7785 21.3575L19.7792 21.3581C17.7227 23.0111 15.1104 24.0001 12.2667 24.0001C7.69678 24.0001 3.72361 21.4458 1.69678 17.6869L5.58557 14.5037C6.59896 17.2083 9.20798 19.1336 12.2667 19.1336C13.5814 19.1336 14.8131 18.7781 15.8699 18.1577L19.7785 21.3575Z" fill="#28B446"/>
<path d="M19.9262 2.76262L16.0387 5.94525C14.9449 5.26153 13.6519 4.86656 12.2666 4.86656C9.13873 4.86656 6.48091 6.88017 5.51829 9.68175L1.60905 6.48131H1.6084C3.60555 2.63077 7.62884 0 12.2666 0C15.1783 0 17.848 1.03716 19.9262 2.76262Z" fill="#F14336"/>
</svg>
