<svg width="53" height="50" viewBox="0 0 53 50" fill="none" xmlns="http://www.w3.org/2000/svg">
<path d="M37.814 25C44.7644 25 50.4053 19.4 50.4053 12.5C50.4053 5.6 44.7644 0 37.814 0C30.8637 0 25.2228 5.6 25.2228 12.5C25.2228 19.4 30.8637 25 37.814 25ZM51.5385 39C50.5564 38 49.3225 37.5 47.8871 37.5H30.2593L25.0213 35.675L25.8524 33.325L30.2593 35H37.3104C38.1918 35 38.8969 34.65 39.4761 34.075C40.0553 33.5 40.3323 32.8 40.3323 32.025C40.3323 30.675 39.6776 29.75 38.3681 29.225L20.0604 22.5H15.1498V45L32.7775 50L52.9991 42.5C53.0243 41.175 52.5206 40 51.5385 39ZM10.1133 22.5H0V50H10.1133V22.5Z" fill="white"/>
</svg>
