<svg width="18" height="18" viewBox="0 0 18 18" fill="none" xmlns="http://www.w3.org/2000/svg">
<path d="M14 0.75H4C3.13835 0.750992 2.31228 1.09372 1.703 1.703C1.09372 2.31228 0.750992 3.13835 0.75 4V14C0.750959 14.8617 1.09368 15.6878 1.70296 16.297C2.31225 16.9063 3.13834 17.249 4 17.25H14C14.8617 17.249 15.6878 16.9063 16.297 16.297C16.9063 15.6878 17.249 14.8617 17.25 14V4C17.249 3.13835 16.9063 2.31228 16.297 1.703C15.6877 1.09372 14.8617 0.750992 14 0.75ZM9 14C8.0111 14 7.0444 13.7068 6.22215 13.1574C5.39991 12.6079 4.75904 11.827 4.3806 10.9134C4.00217 9.99979 3.90315 8.99446 4.09607 8.02455C4.289 7.05465 4.7652 6.16373 5.46447 5.46447C6.16373 4.7652 7.05465 4.289 8.02455 4.09607C8.99446 3.90315 9.99979 4.00216 10.9134 4.3806C11.8271 4.75904 12.6079 5.3999 13.1574 6.22215C13.7068 7.0444 14 8.0111 14 9C14 10.3261 13.4732 11.5979 12.5355 12.5355C11.5979 13.4732 10.3261 14 9 14ZM14.3165 4.90156C14.0692 4.90156 13.8276 4.82825 13.622 4.6909C13.4164 4.55355 13.2562 4.35833 13.1616 4.12992C13.067 3.90151 13.0423 3.65018 13.0905 3.4077C13.1387 3.16522 13.2578 2.9425 13.4326 2.76768C13.6074 2.59286 13.8301 2.47381 14.0726 2.42558C14.3151 2.37735 14.5664 2.4021 14.7948 2.49671C15.0232 2.59132 15.2185 2.75154 15.3558 2.9571C15.4932 3.16266 15.5665 3.40434 15.5665 3.65156C15.5665 3.98308 15.4348 4.30103 15.2004 4.53545C14.9659 4.76987 14.648 4.90156 14.3165 4.90156Z" fill="white"/>
</svg>
