<svg width="17" height="17" viewBox="0 0 17 17" fill="none" xmlns="http://www.w3.org/2000/svg">
<path d="M8.5 16C12.6421 16 16 12.6421 16 8.5C16 4.35786 12.6421 1 8.5 1C4.35786 1 1 4.35786 1 8.5C1 12.6421 4.35786 16 8.5 16Z" stroke="white" stroke-linecap="round" stroke-linejoin="round"/>
<path d="M8.50012 16C10.5001 14.1818 11.5001 11.6818 11.5001 8.5C11.5001 5.31818 10.5001 2.81818 8.50012 1C6.50012 2.81818 5.50012 5.31818 5.50012 8.5C5.50012 11.6818 6.50012 14.1818 8.50012 16Z" stroke="white" stroke-linecap="round" stroke-linejoin="round"/>
<path d="M1.375 6.24994H15.625M1.375 10.7499H15.625" stroke="white" stroke-linecap="round" stroke-linejoin="round"/>
</svg>
