<svg width="21" height="23" viewBox="0 0 21 23" fill="none" xmlns="http://www.w3.org/2000/svg">
<path d="M14.3678 4.47913L14.5499 4.57702L14.6417 4.39181L16.591 0.459981C16.591 0.459975 16.591 0.459968 16.591 0.459962C16.7212 0.197468 16.9805 0.137589 17.1709 0.265518L17.2823 0.0996912L17.1709 0.265519L17.4468 0.451031L17.4468 0.451041C17.6589 0.593567 17.7493 0.934059 17.6125 1.20976L17.6125 1.20979L7.09572 22.4167C6.96552 22.6793 6.70618 22.7391 6.51581 22.6112L6.40425 22.7772L6.51581 22.6112L6.23981 22.4257C6.02781 22.2832 5.93739 21.9427 6.07416 21.6669L7.62694 18.5371L7.72525 18.3389L7.51822 18.261C4.89049 17.2721 2.38494 14.9087 0.24592 11.2594L0.246 11.2593L0.242764 11.2542C0.185766 11.1634 0.18507 11.057 0.244749 10.9588L0.245289 10.9579L0.25541 10.9411L0.255969 10.9402L0.267538 10.9207L0.267926 10.92C3.16848 5.98999 6.73195 3.42394 10.3683 3.42394C11.7237 3.42394 13.0661 3.77927 14.3678 4.47913ZM13.8844 5.9191L13.7073 5.82955C12.6008 5.27004 11.4787 4.99503 10.3683 4.99503C7.5609 4.99503 4.69513 6.74875 2.17699 10.3936L2.17698 10.3936C1.88995 10.8091 1.88995 11.4056 2.17698 11.8211L2.34153 11.7074L2.17698 11.8211C4.06514 14.5542 6.14683 16.2232 8.25567 16.8886L8.41896 16.9401L8.49503 16.7867L9.56857 14.6218L9.66769 14.4219L9.45819 14.3452C8.31121 13.9249 7.34896 12.7471 7.34896 11.1093C7.34896 9.00444 8.7469 7.36708 10.3936 7.36708C11.157 7.36708 11.8609 7.71367 12.402 8.29811L12.599 8.51097L12.7279 8.25109L13.7962 6.09688L13.8844 5.9191ZM11.8419 10.0378L11.8889 9.94311L11.8371 9.85098C11.5338 9.31088 11.0204 8.93816 10.3936 8.93816C9.35302 8.93816 8.56359 9.94556 8.56359 11.1079C8.56359 11.5261 8.7565 11.9616 9.05519 12.2991C9.35509 12.6379 9.77885 12.8974 10.2625 12.938L10.398 12.9493L10.4584 12.8275L11.8419 10.0378Z" fill="#4D5F70" stroke="#4D5F70" stroke-width="0.4"/>
<path d="M11.2425 18.7425C14.5648 18.3662 17.7876 15.8429 20.4512 11.3273L20.6234 11.4289L20.4512 11.3273C20.4934 11.2557 20.5139 11.1885 20.5139 11.1075C20.5139 11.0286 20.4961 10.9671 20.4584 10.9031L20.6308 10.8017L20.4584 10.9031C19.4573 9.20306 18.3754 7.78289 17.2378 6.65301L16.58 7.97966C17.2574 8.6633 17.9194 9.46703 18.5596 10.3937C18.5596 10.3937 18.5596 10.3937 18.5596 10.3937L18.3951 10.5074C18.6349 10.8545 18.6349 11.3604 18.3951 11.7075L11.2425 18.7425ZM11.2425 18.7425L12.1088 16.9956C14.3443 16.4161 16.5607 14.7147 18.5596 11.8212" fill="#4D5F70" stroke="#4D5F70" stroke-width="0.4"/>
</svg>
