<svg width="32" height="32" viewBox="0 0 32 32" fill="none" xmlns="http://www.w3.org/2000/svg">
<path d="M31.75 1.5625V8.125C31.75 8.4731 31.6117 8.80694 31.3656 9.05308C31.1194 9.29922 30.7856 9.4375 30.4375 9.4375C30.0894 9.4375 29.7556 9.29922 29.5094 9.05308C29.2633 8.80694 29.125 8.4731 29.125 8.125V2.875H23.875C23.5269 2.875 23.1931 2.73672 22.9469 2.49058C22.7008 2.24444 22.5625 1.9106 22.5625 1.5625C22.5625 1.2144 22.7008 0.880564 22.9469 0.634423C23.1931 0.388281 23.5269 0.25 23.875 0.25H30.4375C30.7856 0.25 31.1194 0.388281 31.3656 0.634423C31.6117 0.880564 31.75 1.2144 31.75 1.5625ZM8.125 29.125H2.875V23.875C2.875 23.5269 2.73672 23.1931 2.49058 22.9469C2.24444 22.7008 1.9106 22.5625 1.5625 22.5625C1.2144 22.5625 0.880564 22.7008 0.634423 22.9469C0.388281 23.1931 0.25 23.5269 0.25 23.875V30.4375C0.25 30.7856 0.388281 31.1194 0.634423 31.3656C0.880564 31.6117 1.2144 31.75 1.5625 31.75H8.125C8.4731 31.75 8.80694 31.6117 9.05308 31.3656C9.29922 31.1194 9.4375 30.7856 9.4375 30.4375C9.4375 30.0894 9.29922 29.7556 9.05308 29.5094C8.80694 29.2633 8.4731 29.125 8.125 29.125ZM30.4375 22.5625C30.0894 22.5625 29.7556 22.7008 29.5094 22.9469C29.2633 23.1931 29.125 23.5269 29.125 23.875V29.125H23.875C23.5269 29.125 23.1931 29.2633 22.9469 29.5094C22.7008 29.7556 22.5625 30.0894 22.5625 30.4375C22.5625 30.7856 22.7008 31.1194 22.9469 31.3656C23.1931 31.6117 23.5269 31.75 23.875 31.75H30.4375C30.7856 31.75 31.1194 31.6117 31.3656 31.3656C31.6117 31.1194 31.75 30.7856 31.75 30.4375V23.875C31.75 23.5269 31.6117 23.1931 31.3656 22.9469C31.1194 22.7008 30.7856 22.5625 30.4375 22.5625ZM1.5625 9.4375C1.9106 9.4375 2.24444 9.29922 2.49058 9.05308C2.73672 8.80694 2.875 8.4731 2.875 8.125V2.875H8.125C8.4731 2.875 8.80694 2.73672 9.05308 2.49058C9.29922 2.24444 9.4375 1.9106 9.4375 1.5625C9.4375 1.2144 9.29922 0.880564 9.05308 0.634423C8.80694 0.388281 8.4731 0.25 8.125 0.25H1.5625C1.2144 0.25 0.880564 0.388281 0.634423 0.634423C0.388281 0.880564 0.25 1.2144 0.25 1.5625V8.125C0.25 8.4731 0.388281 8.80694 0.634423 9.05308C0.880564 9.29922 1.2144 9.4375 1.5625 9.4375ZM22.5625 25.1875H9.4375C8.74131 25.1875 8.07363 24.9109 7.58135 24.4187C7.08906 23.9264 6.8125 23.2587 6.8125 22.5625V9.4375C6.8125 8.74131 7.08906 8.07363 7.58135 7.58135C8.07363 7.08906 8.74131 6.8125 9.4375 6.8125H22.5625C23.2587 6.8125 23.9264 7.08906 24.4187 7.58135C24.9109 8.07363 25.1875 8.74131 25.1875 9.4375V22.5625C25.1875 23.2587 24.9109 23.9264 24.4187 24.4187C23.9264 24.9109 23.2587 25.1875 22.5625 25.1875ZM9.4375 22.5625H22.5625V9.4375H9.4375V22.5625Z" fill="black"/>
</svg>
