<svg width="39" height="42" viewBox="0 0 39 42" fill="none" xmlns="http://www.w3.org/2000/svg">
<path d="M19.0741 37.1482C29.0561 37.1482 37.1482 29.0561 37.1482 19.0741C37.1482 9.09204 29.0561 1 19.0741 1C9.09204 1 1 9.09204 1 19.0741C1 29.0561 9.09204 37.1482 19.0741 37.1482Z" stroke="white" stroke-width="2" stroke-linecap="round" stroke-linejoin="round"/>
<path d="M28.3229 34.6174C31.1641 35.8838 33.7089 37.7308 35.7935 40.0397M2.35645 40.0397C4.44105 37.7308 6.98581 35.8838 9.82706 34.6174" stroke="white" stroke-width="2" stroke-linecap="round" stroke-linejoin="round"/>
<path d="M19.0741 28.1112C24.0652 28.1112 28.1112 24.0652 28.1112 19.0741C28.1112 14.0831 24.0652 10.0371 19.0741 10.0371C14.0831 10.0371 10.0371 14.0831 10.0371 19.0741C10.0371 24.0652 14.0831 28.1112 19.0741 28.1112Z" stroke="white" stroke-width="2" stroke-linecap="round" stroke-linejoin="round"/>
<path d="M19.0745 20.5802C19.9064 20.5802 20.5807 19.9059 20.5807 19.074C20.5807 18.2422 19.9064 17.5679 19.0745 17.5679C18.2427 17.5679 17.5684 18.2422 17.5684 19.074C17.5684 19.9059 18.2427 20.5802 19.0745 20.5802Z" stroke="white" stroke-linecap="round" stroke-linejoin="round"/>
</svg>
