<svg width="16" height="14" viewBox="0 0 16 14" fill="none" xmlns="http://www.w3.org/2000/svg">
<path d="M15.8103 0.484082L13.3097 13.0914C13.3097 13.0914 12.9601 13.9658 11.9983 13.5461L6.22791 9.12208L4.12966 8.10796L0.597506 6.91883C0.597506 6.91883 0.055443 6.72655 0.00294297 6.30688C-0.0494477 5.88721 0.615005 5.65993 0.615005 5.65993L14.6561 0.151801C14.6561 0.151801 15.8103 -0.355262 15.8103 0.484082Z" fill="white"/>
<path d="M5.78462 12.9495C5.78462 12.9495 5.61618 12.9338 5.40629 12.2692C5.19651 11.6047 4.12988 8.10759 4.12988 8.10759L12.6105 2.72197C12.6105 2.72197 13.1002 2.42469 13.0827 2.72197C13.0827 2.72197 13.1701 2.77436 12.9078 3.01914C12.6455 3.26403 6.24563 9.01683 6.24563 9.01683" fill="#D2E5F1"/>
<path d="M8.44024 10.8179L6.1578 12.8989C6.1578 12.8989 5.97941 13.0343 5.78418 12.9494L6.22124 9.08398" fill="#B5CFE4"/>
</svg>
