<svg width="10" height="11" viewBox="0 0 10 11" fill="none" xmlns="http://www.w3.org/2000/svg">
<path d="M4.16634 7.62869H5.83301C6.06217 7.62869 6.24967 7.44119 6.24967 7.21202V5.12869H6.91217C7.28301 5.12869 7.47051 4.67869 7.20801 4.41619L5.29551 2.50369C5.25696 2.46506 5.21117 2.43442 5.16077 2.41351C5.11036 2.3926 5.05633 2.38184 5.00176 2.38184C4.94719 2.38184 4.89315 2.3926 4.84275 2.41351C4.79234 2.43442 4.74656 2.46506 4.70801 2.50369L2.79551 4.41619C2.53301 4.67869 2.71634 5.12869 3.08717 5.12869H3.74967V7.21202C3.74967 7.44119 3.93717 7.62869 4.16634 7.62869ZM2.49967 8.46202H7.49967C7.72884 8.46202 7.91634 8.64952 7.91634 8.87869C7.91634 9.10785 7.72884 9.29535 7.49967 9.29535H2.49967C2.27051 9.29535 2.08301 9.10785 2.08301 8.87869C2.08301 8.64952 2.27051 8.46202 2.49967 8.46202Z" fill="white"/>
</svg>
