<svg width="19" height="19" viewBox="0 0 19 19" fill="none" xmlns="http://www.w3.org/2000/svg">
<path d="M9.14586 3.70061C9.18693 3.27145 9.81307 3.27145 9.85414 3.70061C9.89048 4.08034 10.4179 4.14437 10.544 3.78438C10.6866 3.37752 11.2946 3.52737 11.2317 3.95389C11.1761 4.33127 11.6729 4.51966 11.8815 4.20032C12.1173 3.8394 12.6718 4.13039 12.5087 4.52948C12.3644 4.88259 12.8016 5.18439 13.0806 4.92426C13.396 4.63026 13.8646 5.04547 13.6108 5.39394C13.3862 5.70226 13.7385 6.09992 14.0716 5.91412C14.4481 5.70413 14.8038 6.21944 14.474 6.49703C14.1821 6.74264 14.429 7.21305 14.7969 7.11238C15.2128 6.9986 15.4348 7.58406 15.0481 7.77464C14.7059 7.94327 14.8331 8.4591 15.2144 8.4494C15.6454 8.43844 15.7209 9.06002 15.2998 9.15252C14.9272 9.23437 14.9272 9.76563 15.2998 9.84748C15.7209 9.93998 15.6454 10.5616 15.2144 10.5506C14.8331 10.5409 14.7059 11.0567 15.0481 11.2254C15.4348 11.4159 15.2128 12.0014 14.7969 11.8876C14.429 11.7869 14.1821 12.2574 14.474 12.503C14.8038 12.7806 14.4481 13.2959 14.0716 13.0859C13.7385 12.9001 13.3862 13.2977 13.6108 13.6061C13.8646 13.9545 13.396 14.3697 13.0806 14.0757C12.8016 13.8156 12.3644 14.1174 12.5087 14.4705C12.6718 14.8696 12.1173 15.1606 11.8815 14.7997C11.6729 14.4803 11.1761 14.6687 11.2317 15.0461C11.2946 15.4726 10.6866 15.6225 10.544 15.2156C10.4179 14.8556 9.89048 14.9197 9.85414 15.2994C9.81307 15.7285 9.18693 15.7285 9.14586 15.2994C9.10952 14.9197 8.58213 14.8556 8.45597 15.2156C8.31339 15.6225 7.70543 15.4726 7.76826 15.0461C7.82385 14.6687 7.32711 14.4803 7.11847 14.7997C6.88266 15.1606 6.32824 14.8696 6.49131 14.4705C6.6356 14.1174 6.19838 13.8156 5.91938 14.0757C5.60405 14.3697 5.13537 13.9545 5.38921 13.6061C5.61382 13.2977 5.26152 12.9001 4.92838 13.0859C4.55185 13.2959 4.19616 12.7806 4.52602 12.503C4.81789 12.2574 4.57099 11.7869 4.20306 11.8876C3.78723 12.0014 3.56519 11.4159 3.9519 11.2254C4.29406 11.0567 4.16692 10.5409 3.78559 10.5506C3.3546 10.5616 3.27913 9.93998 3.70021 9.84748C4.07278 9.76563 4.07278 9.23437 3.70021 9.15252C3.27913 9.06002 3.3546 8.43844 3.78559 8.4494C4.16692 8.4591 4.29406 7.94327 3.9519 7.77464C3.56519 7.58406 3.78723 6.9986 4.20306 7.11238C4.57099 7.21305 4.81789 6.74264 4.52602 6.49703C4.19616 6.21944 4.55185 5.70413 4.92838 5.91412C5.26152 6.09992 5.61382 5.70226 5.38921 5.39394C5.13537 5.04547 5.60405 4.63026 5.91938 4.92426C6.19838 5.18439 6.6356 4.88259 6.49131 4.52948C6.32824 4.13039 6.88266 3.8394 7.11847 4.20032C7.32711 4.51966 7.82385 4.33127 7.76826 3.95389C7.70543 3.52737 8.31339 3.37752 8.45597 3.78438C8.58213 4.14437 9.10952 4.08034 9.14586 3.70061Z" fill="#00C795"/>
<path fill-rule="evenodd" clip-rule="evenodd" d="M8.34914 10.9337L6.83777 9.38979L6.33398 9.90444L8.34914 11.963L12.6673 7.55176L12.1635 7.03711L8.34914 10.9337Z" fill="white"/>
</svg>
