<svg width="46" height="46" viewBox="0 0 46 46" fill="none" xmlns="http://www.w3.org/2000/svg">
<path d="M35.6905 30.8276C35.6963 33.1626 35.199 35.4715 34.2326 37.5971C33.2662 39.7228 31.8533 41.6153 30.09 43.146C28.9342 44.1619 29.7258 46.0632 31.2649 45.9099C32.2939 45.8094 33.3119 45.6169 34.3066 45.3349C36.9774 44.5817 39.4053 43.1447 41.3506 41.1658C43.2959 39.1869 44.6911 36.7347 45.3984 34.0515C46.0711 31.6151 46.1715 29.0562 45.6917 26.5747C45.212 24.0931 44.165 21.756 42.6326 19.746C41.1002 17.736 39.1239 16.1074 36.8581 14.9875C34.5922 13.8676 32.0981 13.2867 29.5706 13.2901C28.9013 13.2896 28.2325 13.328 27.5676 13.4051C26.0458 13.5968 25.6606 15.6304 27.0118 16.3606C32.1887 19.1436 35.6943 24.5735 35.6943 30.8276H35.6905ZM15.1534 35.6442C12.8134 35.6516 10.499 35.157 8.3664 34.1938C6.23379 33.2307 4.33254 31.8214 2.7909 30.061C1.77123 28.911 -0.135854 29.6968 0.0193964 31.2301C0.119497 32.2561 0.311944 33.2709 0.594396 34.2623C2.11623 39.673 6.46706 43.8955 11.9161 45.3138C22.8929 48.1735 32.7503 39.9989 32.7503 29.5415C32.7503 28.8707 32.712 28.1999 32.6353 27.5482C32.4436 26.0302 30.4024 25.6469 29.6702 26.9924C28.2571 29.6108 26.1613 31.7978 23.6054 33.3211C21.0495 34.8443 18.1288 35.6471 15.1534 35.6442ZM10.3157 15.1723C10.3104 12.837 10.8083 10.5279 11.7753 8.40228C12.7424 6.27662 14.1561 4.38423 15.9201 2.85388C17.0758 1.83613 16.2842 -0.0632851 14.7451 0.0900483C13.7107 0.191385 12.6864 0.377284 11.6823 0.645882C9.01396 1.40289 6.58854 2.84127 4.64448 4.8196C2.70043 6.79793 1.30466 9.24812 0.594396 11.9293C-0.0783313 14.3656 -0.178725 16.9245 0.301056 19.4061C0.780837 21.8877 1.8278 24.2247 3.36018 26.2347C4.89256 28.2448 6.86887 29.8733 9.13474 30.9932C11.4006 32.1131 13.8947 32.6941 16.4222 32.6906C17.0969 32.6906 17.7716 32.6523 18.4251 32.5756C19.947 32.384 20.3322 30.3485 18.981 29.6201C16.3632 28.2233 14.1743 26.1411 12.6484 23.5963C11.1224 21.0515 10.3149 18.1397 10.3157 15.1723ZM30.8624 10.3557C33.2024 10.3484 35.5168 10.8429 37.6494 11.8061C39.782 12.7692 41.6833 14.1786 43.2249 15.939C44.2407 17.089 46.1497 16.3031 45.9945 14.7698C45.8945 13.7432 45.702 12.7277 45.4195 11.7357C43.8957 6.32497 39.5449 2.10446 34.0939 0.684215C23.1363 -2.19462 13.2789 5.97997 13.2789 16.4373C13.2789 17.1081 13.3172 17.779 13.3939 18.4325C13.5856 19.9486 15.6326 20.332 16.3628 18.9884C17.7743 16.3747 19.8673 14.1922 22.4196 12.6725C24.9719 11.1529 27.8881 10.3529 30.8586 10.3576L30.8624 10.3557Z" fill="white"/>
</svg>
