<svg width="16" height="12" viewBox="0 0 16 12" fill="none" xmlns="http://www.w3.org/2000/svg">
<path fill-rule="evenodd" clip-rule="evenodd" d="M15.4742 2.69623C15.4742 2.69623 15.3221 1.55319 14.8559 1.04993C14.2643 0.389046 13.6012 0.385957 13.2974 0.347612C11.1206 0.179688 7.8554 0.179688 7.8554 0.179688H7.84859C7.84859 0.179688 4.58339 0.179688 2.40658 0.347612C2.10227 0.385957 1.4397 0.389046 0.847622 1.04993C0.381441 1.55332 0.229774 2.69623 0.229774 2.69623C0.229774 2.69623 0.0742188 4.03885 0.0742188 5.38083V6.63942C0.0742188 7.98191 0.229774 9.32402 0.229774 9.32402C0.229774 9.32402 0.381441 10.4671 0.847622 10.9703C1.4397 11.6312 2.217 11.6105 2.56311 11.6795C3.80755 11.807 7.852 11.8464 7.852 11.8464C7.852 11.8464 11.1206 11.8412 13.2974 11.6733C13.6012 11.6344 14.2643 11.6313 14.8559 10.9704C15.3221 10.4671 15.4742 9.32415 15.4742 9.32415C15.4742 9.32415 15.6298 7.98204 15.6298 6.63942V5.38083C15.6298 4.03885 15.4742 2.69623 15.4742 2.69623ZM6.24589 8.16451L6.2454 3.50394L10.4483 5.84227L6.24589 8.16451Z" fill="white"/>
</svg>
